<?xml version="1.0" standalone="no"?>
<!DOCTYPE svg PUBLIC "-//W3C//DTD SVG 20010904//EN"
 "http://www.w3.org/TR/2001/REC-SVG-20010904/DTD/svg10.dtd">
<svg version="1.0" xmlns="http://www.w3.org/2000/svg"
 width="300.000000pt" height="380.000000pt" viewBox="0 0 300.000000 380.000000"
 preserveAspectRatio="xMidYMid meet">

<g transform="translate(0.000000,380.000000) scale(0.100000,-0.100000)"
fill="#543714" stroke="none">
<path d="M2111 3724 c-99 -108 -129 -192 -141 -394 -12 -187 -16 -222 -41
-322 -18 -73 -19 -91 -7 -335 7 -142 12 -278 11 -303 -2 -62 -39 -155 -140
-355 -47 -93 -101 -210 -118 -260 -18 -49 -37 -91 -43 -93 -16 -5 -162 339
-162 381 1 34 41 124 98 219 67 111 109 204 159 353 60 175 67 220 68 405 0
179 -10 222 -52 228 -28 4 -57 -35 -121 -163 -46 -92 -51 -109 -61 -210 -7
-61 -17 -137 -23 -170 -10 -56 -67 -184 -101 -230 -14 -18 -15 -17 -21 25 -3
25 -7 88 -10 140 -3 52 -10 156 -16 230 -9 103 -9 186 0 348 13 233 9 275 -35
325 -27 33 -36 33 -63 4 -73 -78 -104 -247 -121 -672 -8 -186 -13 -231 -32
-290 -19 -57 -23 -92 -23 -190 0 -138 14 -198 75 -318 l40 -78 -26 -114 c-48
-215 -58 -312 -59 -600 -1 -253 0 -274 21 -340 59 -187 76 -389 48 -589 -15
-104 -16 -134 -6 -167 15 -49 32 -57 77 -35 34 15 35 15 44 -7 5 -12 11 -33
14 -47 8 -38 44 -90 61 -90 9 0 30 22 47 50 31 50 42 58 53 40 11 -17 54 -11
65 9 6 12 10 98 10 209 l0 189 40 86 c41 90 49 116 100 355 35 168 38 258 10
363 -29 109 -26 138 17 200 192 279 267 415 348 634 45 120 54 217 41 405 -16
226 -13 544 6 640 23 115 58 409 58 492 0 117 -14 124 -89 42z m69 -33 c0 -68
-20 -241 -45 -386 -38 -229 -48 -330 -42 -439 3 -55 11 -186 17 -291 15 -259
9 -299 -76 -505 -37 -91 -83 -190 -100 -220 -55 -94 -230 -345 -240 -344 -22
3 -35 50 -29 108 9 82 44 174 147 379 143 287 133 243 130 582 -3 272 1 340
27 490 6 33 16 132 21 220 14 213 28 257 117 383 53 73 73 80 73 23z m-828
-207 c19 -44 20 -58 13 -303 -6 -203 -4 -296 10 -450 15 -167 15 -213 5 -327
-7 -73 -10 -155 -7 -181 3 -26 40 -125 81 -220 154 -354 276 -719 276 -824 0
-44 -51 -306 -79 -408 -10 -37 -35 -105 -54 -151 -35 -85 -35 -86 -41 -274 -5
-178 -15 -237 -31 -186 -4 12 -7 130 -8 263 -1 236 0 244 27 342 16 55 37 129
47 165 12 43 18 101 18 168 1 124 -6 149 -138 464 -49 119 -98 243 -107 275
-18 60 -42 104 -105 188 -114 153 -146 338 -95 543 19 77 26 135 31 282 14
410 43 587 108 658 11 12 22 22 24 22 2 0 13 -21 25 -46z m419 -320 c17 -74
10 -221 -16 -350 -41 -202 -108 -372 -219 -554 -29 -47 -58 -101 -66 -120 -20
-54 -26 -55 -44 -9 -42 105 -30 188 59 379 58 126 79 199 90 318 8 94 27 155
81 266 45 93 80 134 96 118 5 -5 14 -27 19 -48z m-430 -1342 c56 -142 63 -226
26 -324 -38 -99 -61 -260 -61 -428 -1 -120 4 -168 27 -278 31 -152 33 -231 12
-417 -17 -140 -25 -161 -84 -197 l-34 -22 7 115 c18 331 18 354 2 474 -9 66
-27 149 -39 185 -21 61 -22 82 -22 355 0 268 2 302 27 450 15 88 32 177 38
199 l12 38 23 -22 c12 -12 42 -69 66 -128z m133 -326 c52 -122 53 -132 18
-212 -35 -81 -60 -165 -97 -326 -15 -65 -30 -118 -35 -118 -33 0 -45 261 -20
440 18 137 71 317 89 305 5 -2 25 -43 45 -89z m93 -252 c24 -54 25 -63 20
-168 -5 -81 -14 -137 -35 -206 -38 -123 -51 -226 -61 -481 l-8 -206 -35 -64
c-19 -35 -41 -65 -50 -67 -42 -8 -59 152 -34 321 9 61 16 171 16 252 0 144 5
181 56 395 24 102 85 280 95 280 6 0 22 -25 36 -56z"/>
<path d="M2016 2760 c2 -63 11 -151 19 -195 18 -101 19 -178 1 -235 -43 -138
-113 -299 -159 -364 -12 -16 -16 -26 -10 -23 24 15 103 156 143 255 62 154 66
193 41 364 -12 79 -21 163 -22 188 0 25 -4 63 -9 85 -7 28 -8 7 -4 -75z"/>
<path d="M1287 3375 c-11 -34 -37 -311 -36 -387 l2 -73 8 85 c4 47 15 144 24
215 17 128 18 205 2 160z"/>
<path d="M1669 2833 c-6 -16 -22 -84 -36 -153 -27 -134 -31 -146 -73 -200 -15
-19 -35 -48 -45 -65 l-17 -30 27 30 c75 84 100 138 129 276 15 74 28 142 30
152 6 26 -3 20 -15 -10z"/>
<path d="M2535 3532 c-68 -42 -127 -135 -186 -295 -59 -158 -69 -223 -69 -435
0 -148 -6 -240 -26 -400 -25 -195 -29 -211 -65 -282 -20 -41 -58 -147 -84
-235 -25 -88 -62 -196 -81 -240 -62 -141 -95 -237 -130 -379 -41 -169 -44
-274 -14 -450 l21 -117 -36 -114 c-42 -135 -45 -158 -6 -55 44 120 110 229
207 345 107 129 212 322 255 470 21 70 24 102 24 245 0 171 -16 304 -57 490
-30 133 -32 181 -12 295 10 64 19 197 24 370 7 261 8 273 37 370 39 129 75
213 124 289 40 62 67 88 107 100 26 9 27 3 12 -75 -6 -30 -17 -112 -25 -184
-8 -71 -21 -152 -30 -180 -29 -96 -63 -345 -96 -712 -14 -152 -6 -218 41 -342
64 -167 62 -233 -21 -623 -81 -387 -99 -418 -407 -708 -55 -52 -77 -82 -110
-150 -44 -94 -58 -147 -68 -263 -12 -146 -39 -85 -39 88 l1 100 -14 -55 c-23
-99 1 -300 36 -300 17 0 24 33 32 156 7 94 14 133 33 176 40 89 38 90 103 -71
27 -65 34 -98 34 -150 0 -87 7 -110 37 -117 34 -9 60 19 80 85 21 74 8 161
-47 309 -61 166 -61 162 -3 208 115 91 217 227 274 363 17 41 46 148 65 238
18 90 40 189 48 220 9 32 21 103 27 157 14 112 4 220 -31 321 -11 32 -20 73
-20 92 0 75 85 192 226 311 69 58 70 60 119 232 20 69 60 202 90 295 30 94 60
196 66 228 11 53 10 61 -8 85 -29 39 -58 40 -94 1 -37 -40 -78 -124 -174 -363
-77 -193 -109 -247 -189 -326 l-46 -44 0 30 c0 65 42 367 71 504 65 316 84
492 53 504 -22 9 -26 8 -59 -12z m420 -332 c10 -31 -3 -82 -71 -292 -35 -108
-72 -230 -83 -270 -33 -122 -55 -161 -135 -235 -40 -37 -104 -104 -142 -148
l-69 -79 -7 59 c-7 64 4 171 20 201 6 11 42 60 81 109 80 102 104 148 197 377
79 194 98 235 132 271 30 32 68 36 77 7z m-695 -1085 c5 -13 16 -64 25 -112
19 -111 17 -116 -95 -344 -98 -199 -124 -285 -135 -449 -12 -165 -33 -297 -56
-342 -33 -66 -60 -101 -70 -91 -17 17 -39 164 -39 258 0 155 29 265 154 582
41 103 82 217 91 253 9 36 28 99 42 140 44 130 64 155 83 105z m68 -500 c4
-177 -11 -257 -72 -390 -36 -79 -108 -192 -147 -234 l-23 -25 -13 30 c-30 71
-6 278 50 424 29 77 153 338 169 357 24 30 33 -8 36 -162z m-234 -1146 c38
-112 50 -163 54 -227 4 -70 2 -86 -13 -102 -19 -21 -40 -26 -49 -11 -3 5 -11
44 -17 87 -5 44 -28 133 -51 198 l-40 119 21 44 c12 25 27 43 34 41 6 -3 34
-69 61 -149z"/>
<path d="M2828 2930 c-4 -8 -12 -40 -19 -70 -45 -204 -80 -277 -216 -435 -38
-45 -55 -70 -38 -57 58 45 146 158 190 247 45 90 99 272 92 310 -3 15 -5 17
-9 5z"/>
<path d="M2091 1608 c0 -4 -13 -47 -27 -95 -29 -101 -64 -265 -63 -297 0 -11
11 24 24 79 12 55 35 139 50 188 14 48 24 97 22 110 -2 12 -5 19 -6 15z"/>
<path d="M1993 1125 c0 -33 2 -45 4 -27 2 18 2 45 0 60 -2 15 -4 0 -4 -33z"/>
<path d="M2488 3324 c-5 -4 -8 -17 -8 -30 0 -28 -42 -243 -70 -354 -15 -61
-22 -128 -25 -235 -4 -160 -1 -147 25 109 6 54 21 140 34 190 46 173 70 347
44 320z"/>
<path d="M51 3276 c-20 -23 -33 -128 -29 -221 4 -83 9 -100 60 -215 30 -69 58
-136 61 -150 9 -38 68 -102 172 -186 125 -100 201 -185 252 -280 76 -146 141
-371 128 -444 -4 -19 -28 -82 -55 -140 -26 -58 -54 -132 -61 -165 -17 -80 -17
-379 0 -567 12 -122 12 -173 2 -290 -15 -167 -9 -218 45 -367 39 -108 76 -176
103 -190 40 -22 42 34 5 122 -24 54 -28 83 -36 230 -9 155 -8 174 12 265 18
80 21 127 21 271 -1 187 8 263 40 336 30 67 31 67 108 -77 l41 -78 0 -451 0
-450 25 -52 c26 -56 80 -116 92 -103 5 4 9 98 9 209 1 161 6 222 22 302 55
267 51 359 -28 610 -58 183 -80 269 -100 387 -21 131 -23 119 42 338 63 215
67 268 48 650 -10 203 -49 500 -69 539 -8 15 -20 21 -34 19 -28 -4 -45 -53
-86 -253 -32 -153 -38 -256 -21 -330 20 -90 29 -230 19 -300 -18 -130 -26
-134 -65 -32 -31 82 -84 192 -122 251 -34 54 -78 144 -106 220 -37 98 -80 175
-145 261 -68 90 -310 345 -327 345 -6 0 -17 -6 -23 -14z m82 -73 c24 -27 90
-97 146 -158 132 -141 188 -227 252 -389 28 -72 71 -161 95 -199 67 -104 89
-151 148 -328 77 -230 124 -408 141 -536 18 -140 27 -181 76 -336 60 -191 89
-314 89 -385 0 -77 -22 -221 -56 -367 -22 -93 -25 -128 -22 -231 1 -67 0 -125
-4 -129 -9 -10 -35 43 -44 90 -4 22 -8 229 -8 460 l-1 420 -52 110 c-68 147
-104 264 -158 529 -54 261 -81 350 -142 471 -64 129 -92 161 -246 291 l-139
117 -84 175 -84 175 0 99 c0 97 16 168 39 168 5 0 29 -21 54 -47z m812 -135
c3 -7 16 -80 31 -163 21 -123 27 -202 34 -434 9 -301 6 -339 -33 -472 -14 -46
-30 -107 -37 -136 -6 -28 -18 -60 -25 -70 -12 -17 -14 -16 -20 12 -4 17 -13
55 -21 85 -37 140 -39 171 -19 301 23 150 23 156 -3 294 -12 61 -22 136 -22
167 0 59 62 374 80 408 12 23 28 26 35 8z m-201 -1485 c20 -82 36 -160 36
-174 0 -15 -11 -57 -25 -93 -43 -114 -49 -154 -50 -356 -1 -140 -6 -213 -18
-260 -8 -36 -18 -78 -20 -95 -9 -56 12 -329 32 -402 19 -74 13 -96 -13 -45
-26 51 -83 226 -90 278 -5 31 -1 97 9 170 15 109 15 136 1 319 -18 229 -21
448 -6 526 6 30 26 84 45 122 20 37 38 87 42 112 3 25 9 45 13 45 4 0 24 -66
44 -147z"/>
<path d="M96 3063 c12 -56 77 -239 100 -285 29 -58 149 -201 240 -288 54 -51
49 -45 -22 30 -152 161 -190 223 -259 428 -26 78 -52 142 -57 142 -4 0 -6 -12
-2 -27z"/>
<path d="M901 2775 c0 -27 8 -97 19 -155 10 -58 21 -123 23 -145 3 -34 4 -31
5 15 2 49 -16 188 -37 295 l-9 40 -1 -50z"/>
<path d="M645 1403 c-11 -29 -18 -240 -7 -223 10 15 27 240 19 240 -3 0 -8 -8
-12 -17z"/>
</g>
</svg>
