<?xml version="1.0" standalone="no"?>
<!DOCTYPE svg PUBLIC "-//W3C//DTD SVG 20010904//EN"
 "http://www.w3.org/TR/2001/REC-SVG-20010904/DTD/svg10.dtd">
<svg version="1.0" xmlns="http://www.w3.org/2000/svg"
 width="309.000000pt" height="309.000000pt" viewBox="0 0 309.000000 309.000000"
 preserveAspectRatio="xMidYMid meet">

<g transform="translate(0.000000,309.000000) scale(0.100000,-0.100000)"
fill="#000000" stroke="none">
<path d="M1400 3069 c-365 -35 -676 -183 -940 -448 -226 -227 -353 -464 -422
-784 -29 -137 -31 -426 -5 -562 80 -408 292 -746 616 -979 83 -59 229 -140
321 -177 67 -26 230 -74 285 -83 l40 -7 4 533 3 534 -53 -1 c-30 0 -118 1
-196 3 l-143 2 0 225 0 225 195 0 195 0 0 205 c0 240 13 323 67 435 42 87 130
180 210 223 84 45 190 67 322 67 105 0 241 -11 314 -26 l27 -6 0 -141 c0 -78
-3 -165 -6 -194 l-7 -52 -131 1 c-147 1 -187 -9 -244 -65 -50 -49 -62 -104
-62 -294 0 -114 3 -162 11 -158 6 4 100 4 211 0 l200 -8 -7 -61 c-4 -33 -19
-133 -33 -221 l-27 -160 -176 -3 -176 -2 -6 -527 c-4 -289 -5 -528 -2 -531 8
-8 124 18 225 50 742 237 1187 987 1039 1756 -58 299 -200 564 -423 788 -263
262 -567 405 -945 443 -114 12 -156 12 -281 0z"/>
</g>
</svg>
