<?xml version="1.0" standalone="no"?>
<!DOCTYPE svg PUBLIC "-//W3C//DTD SVG 20010904//EN"
 "http://www.w3.org/TR/2001/REC-SVG-20010904/DTD/svg10.dtd">
<svg version="1.0" xmlns="http://www.w3.org/2000/svg"
 width="578.000000pt" height="785.000000pt" viewBox="0 0 578.000000 785.000000"
 preserveAspectRatio="xMidYMid meet">

<g transform="translate(0.000000,785.000000) scale(0.100000,-0.100000)"
fill="#7B4E19" stroke="none">
<path d="M2030 7799 c-82 -32 -192 -149 -320 -339 -188 -278 -231 -309 -590
-415 -284 -84 -364 -132 -428 -260 -36 -73 -43 -139 -42 -406 0 -140 -4 -280
-10 -310 -17 -90 -81 -204 -210 -369 -285 -367 -286 -492 -7 -850 127 -163
163 -219 198 -305 22 -58 23 -71 26 -355 2 -218 7 -310 18 -352 48 -190 139
-253 525 -363 69 -20 163 -54 210 -77 113 -54 183 -127 328 -341 176 -258 262
-327 417 -335 94 -4 172 15 420 102 279 97 351 97 630 0 248 -87 326 -106 420
-102 155 8 241 77 417 335 145 214 215 287 328 341 47 23 141 57 210 77 325
93 431 150 490 265 43 84 50 140 53 450 3 284 4 297 26 355 35 86 71 142 198
305 279 358 278 483 -7 850 -129 165 -193 279 -210 369 -6 30 -10 170 -10 310
1 267 -6 333 -42 406 -32 65 -64 100 -121 138 -69 46 -127 69 -307 122 -198
59 -236 72 -304 108 -108 57 -132 84 -350 397 -93 133 -185 220 -263 250 -49
19 -72 21 -153 18 -81 -4 -115 -12 -230 -52 -466 -164 -455 -164 -920 0 -120
42 -146 48 -235 51 -84 3 -109 0 -155 -18z m1161 -504 c665 -103 1234 -523
1529 -1130 118 -244 179 -466 202 -748 28 -336 -41 -704 -188 -1017 -405 -856
-1338 -1324 -2264 -1136 -803 164 -1446 810 -1599 1609 -86 445 -28 887 169
1292 319 656 938 1079 1680 1149 84 8 375 -4 471 -19z"/>
<path d="M2755 6656 c-5 -2 -50 -9 -100 -16 -388 -52 -765 -306 -974 -655 -99
-167 -151 -312 -182 -509 -24 -155 -24 -266 1 -425 41 -267 142 -487 318 -693
217 -255 515 -420 847 -469 164 -24 256 -24 420 0 332 49 630 214 847 469 178
208 277 426 320 702 62 403 -56 810 -325 1120 -211 243 -504 407 -817 460 -72
12 -334 24 -355 16z m556 -726 c32 -9 169 -117 177 -141 2 -5 -11 -9 -30 -9
-59 0 -62 -6 -94 -187 -30 -173 -83 -257 -200 -314 -57 -28 -79 -33 -201 -42
-247 -18 -555 20 -709 87 l-59 26 75 -7 c100 -11 295 -9 345 2 l40 8 -45 8
c-25 4 -70 8 -100 8 -30 1 -77 7 -105 15 -58 16 -145 56 -145 68 0 4 52 8 115
8 130 0 189 10 287 51 98 40 175 98 340 256 176 167 216 189 309 163z m-1161
-585 c177 -107 457 -159 795 -149 l120 4 -60 -17 c-81 -23 -47 -28 62 -9 118
20 251 59 348 102 44 20 89 38 100 41 17 4 17 2 -5 -17 -97 -84 -225 -136
-405 -165 l-90 -15 105 4 c112 5 207 31 298 81 25 14 46 24 48 22 2 -2 -20
-26 -49 -55 -99 -97 -232 -157 -412 -187 l-90 -15 106 4 c209 9 379 101 509
277 64 86 76 89 36 11 -132 -261 -534 -442 -924 -417 -57 3 -128 13 -159 21
-139 36 -272 125 -335 224 l-29 45 6 -40 c13 -75 88 -217 153 -287 14 -15 23
-30 20 -33 -11 -11 -134 125 -186 205 -30 47 -87 117 -126 156 -40 39 -80 87
-89 107 -21 43 -22 100 -3 117 22 17 76 -61 76 -109 -1 -34 -2 -35 -15 -17
-19 25 -19 15 -1 -27 14 -34 72 -94 81 -85 3 3 1 34 -5 69 -11 72 -14 212 -3
222 3 4 16 0 27 -8 12 -8 55 -35 96 -60z m1490 -93 c-6 -50 -24 -117 -41 -157
-16 -38 -29 -73 -29 -78 0 -4 27 6 60 24 33 18 58 34 56 36 -2 3 -14 -1 -26
-7 -31 -16 -40 -2 -12 20 22 18 120 45 130 36 2 -3 -1 -19 -8 -35 -12 -29 -77
-71 -111 -71 -39 -1 -112 -49 -198 -134 -95 -91 -148 -129 -226 -161 -46 -19
-42 -15 41 47 33 26 97 85 142 132 95 101 159 218 193 356 12 47 24 92 27 100
12 34 13 -24 2 -108z m-1726 -83 c13 0 6 -5 -19 -14 -25 -8 -33 -14 -20 -15
19 -1 19 -2 -2 -12 -23 -11 -89 -3 -98 12 -3 4 2 16 12 25 13 13 27 16 61 11
25 -3 54 -6 66 -7z m1603 -71 c-91 -161 -266 -305 -454 -374 -40 -15 -73 -28
-73 -31 0 -7 57 11 154 49 54 21 101 36 103 34 9 -9 -102 -66 -165 -86 -91
-28 -173 -40 -285 -40 -102 0 -221 21 -253 45 -17 12 -13 12 26 4 25 -6 99 -9
165 -6 136 5 220 29 331 94 66 38 68 53 10 53 -43 0 -28 8 76 43 130 44 198
87 303 192 49 50 92 90 94 88 2 -1 -13 -30 -32 -65z m-1163 -223 c89 -43 159
-61 272 -70 79 -6 240 5 291 21 10 3 1 -4 -19 -16 -102 -56 -305 -66 -432 -21
-76 27 -86 20 -11 -8 86 -32 132 -40 230 -41 103 0 187 19 251 56 54 31 58 19
6 -17 -68 -49 -125 -62 -262 -63 -102 -1 -138 3 -195 21 -125 39 -235 127
-287 228 l-20 39 52 -47 c29 -26 84 -63 124 -82z m1183 23 c-55 -93 -181 -196
-306 -249 -103 -44 -116 -34 -18 15 111 55 227 144 291 223 28 34 53 60 55 58
2 -2 -8 -23 -22 -47z m-1143 -203 c69 -30 93 -32 49 -4 -47 30 -41 31 21 4
117 -52 168 -60 366 -59 168 1 194 4 284 28 54 15 100 25 102 23 11 -10 -144
-70 -218 -84 -106 -20 -351 -13 -448 12 -90 23 -236 96 -290 145 l-45 41 61
-41 c34 -22 87 -51 118 -65z"/>
<path d="M3175 5581 c-12 -5 -66 -50 -120 -101 -127 -117 -150 -135 -238 -181
-81 -43 -76 -49 16 -18 72 24 138 62 225 131 34 27 62 47 62 43 0 -19 -81
-101 -136 -137 -35 -23 -62 -44 -60 -46 6 -5 105 38 151 66 22 14 64 45 93 70
61 52 68 44 15 -19 -51 -60 -70 -75 -125 -104 -27 -14 -48 -27 -48 -29 0 -2
19 0 43 5 108 24 207 100 251 193 43 89 43 94 -1 112 -47 20 -102 27 -128 15z"/>
<path d="M2124 5218 c28 -42 118 -109 201 -149 91 -43 205 -69 297 -68 l63 1
-80 14 c-177 31 -318 89 -436 179 -45 35 -57 41 -45 23z"/>
<path d="M2225 5210 c24 -27 121 -75 205 -104 253 -85 638 -92 817 -15 24 10
43 20 43 22 0 2 -33 -2 -72 -9 -198 -35 -550 2 -808 85 -50 16 -90 27 -90 24
0 -10 133 -64 207 -84 43 -12 125 -30 183 -40 l105 -19 -105 5 c-137 5 -276
41 -403 104 -54 27 -90 40 -82 31z"/>
<path d="M2305 4998 c98 -62 174 -81 335 -86 80 -2 161 0 180 5 27 7 -1 11
-125 16 -173 7 -250 22 -354 68 -83 38 -98 36 -36 -3z"/>
<path d="M946 3301 c-14 -21 -946 -2485 -942 -2488 2 -3 287 50 633 117 345
66 639 123 653 125 23 4 61 -42 430 -524 223 -291 408 -527 411 -523 4 4 172
445 375 979 203 535 371 973 374 973 3 0 171 -438 374 -973 203 -534 371 -975
375 -979 3 -4 188 232 411 523 369 482 407 528 430 524 14 -2 308 -59 653
-125 346 -67 631 -120 633 -117 5 5 -934 2479 -945 2490 -9 9 -71 -2 -71 -13
0 -4 147 -394 326 -866 180 -472 375 -987 434 -1144 70 -182 104 -286 97 -288
-11 -2 -147 23 -922 173 -242 47 -291 54 -300 42 -5 -7 -176 -230 -379 -495
-362 -472 -370 -482 -381 -455 -6 16 -211 556 -456 1201 l-444 1172 -30 -6
c-16 -4 -104 -30 -195 -59 -351 -113 -478 -113 -636 0 -75 54 -130 117 -269
308 -75 104 -126 163 -169 197 -33 27 -74 63 -90 80 -30 32 -72 57 -154 89
l-48 19 -383 -1009 c-211 -556 -381 -1012 -378 -1015 3 -3 29 -1 59 5 158 30
996 191 1014 196 17 4 74 -66 360 -440 186 -244 342 -444 345 -445 4 0 9 9 12
21 12 46 622 1649 628 1649 3 0 18 -31 32 -69 l25 -69 -339 -893 c-187 -492
-345 -909 -352 -927 l-13 -33 -370 482 c-203 266 -374 489 -379 496 -9 12 -58
5 -300 -42 -776 -150 -911 -175 -922 -173 -8 2 59 189 186 523 575 1514 674
1776 670 1779 -11 10 -68 16 -73 7z"/>
<path d="M4559 3227 c-151 -66 -223 -133 -386 -357 -138 -189 -193 -252 -267
-305 -158 -113 -285 -113 -636 0 -199 64 -308 87 -388 83 l-60 -3 389 -1025
c214 -564 392 -1035 395 -1048 4 -12 9 -22 13 -22 3 1 159 201 345 445 286
374 343 444 360 440 18 -5 856 -166 1014 -196 30 -6 56 -8 59 -5 4 4 -752
2012 -761 2023 -1 1 -35 -13 -77 -30z"/>
</g>
</svg>
