<?xml version="1.0" standalone="no"?>
<!DOCTYPE svg PUBLIC "-//W3C//DTD SVG 20010904//EN"
 "http://www.w3.org/TR/2001/REC-SVG-20010904/DTD/svg10.dtd">
<svg version="1.0" xmlns="http://www.w3.org/2000/svg"
 width="300.000000pt" height="203.000000pt" viewBox="0 0 300.000000 203.000000"
 preserveAspectRatio="xMidYMid meet">

<g transform="translate(0.000000,203.000000) scale(0.100000,-0.100000)"
fill="#543714" stroke="none">
<path d="M2121 2000 c-64 -30 -113 -72 -311 -265 -233 -227 -319 -291 -490
-362 -131 -55 -260 -75 -442 -71 -182 4 -186 -1 -53 -63 109 -51 211 -71 377
-72 75 -1 139 -5 143 -9 4 -3 -29 -15 -72 -25 -105 -24 -406 -24 -537 0 -49 9
-91 15 -93 13 -8 -8 141 -67 231 -91 244 -66 449 -88 773 -82 281 5 322 11
438 68 178 87 264 238 300 529 9 74 24 151 33 170 16 33 20 35 80 41 34 3 65
8 67 11 3 3 -24 27 -60 53 -36 27 -76 62 -89 79 -61 80 -207 118 -295 76z
m213 -72 c21 -30 20 -44 -4 -68 -36 -36 -90 -16 -90 35 0 52 65 74 94 33z
m-81 -448 c91 -34 91 -34 66 -110 -55 -164 -172 -284 -331 -340 -60 -21 -158
-40 -158 -31 0 3 35 22 78 41 60 27 92 50 147 105 39 39 81 91 94 116 29 52
25 50 -88 -54 -55 -51 -101 -81 -185 -122 -61 -30 -129 -57 -151 -61 -38 -5
-35 -3 45 46 47 28 105 70 129 93 51 49 121 135 121 148 0 5 -37 -23 -82 -62
-133 -115 -266 -191 -393 -224 -109 -28 -115 -17 -15 28 141 64 199 106 367
270 83 81 166 154 185 162 47 20 108 18 171 -5z"/>
<path d="M2261 1916 c-9 -11 -10 -20 -1 -35 13 -25 42 -27 60 -6 11 13 9 19
-8 35 -25 24 -36 25 -51 6z"/>
<path d="M384 1204 c-10 -71 1 -262 21 -337 10 -37 15 -70 12 -74 -10 -10
-107 68 -123 98 -19 37 -57 159 -51 165 5 5 47 -89 47 -106 0 -6 5 -8 10 -5 6
3 10 26 10 50 0 34 -9 56 -42 106 -24 35 -48 65 -55 67 -22 6 -46 -57 -39
-105 7 -56 29 -97 78 -151 22 -24 37 -46 34 -49 -3 -3 14 -18 37 -33 57 -36
133 -122 167 -190 42 -83 137 -206 218 -282 103 -97 124 -102 45 -10 -121 141
-207 312 -219 436 l-5 51 33 -60 c97 -174 283 -297 542 -358 79 -18 121 -21
311 -21 200 0 231 2 346 27 446 95 786 320 918 608 44 97 47 121 6 55 -159
-258 -400 -435 -667 -490 -87 -18 -323 -23 -313 -6 3 6 30 10 59 10 171 0 422
80 575 182 53 35 143 119 174 162 l21 29 -45 -27 c-102 -63 -239 -114 -364
-135 -94 -15 -247 -23 -280 -13 -26 7 -18 10 50 16 194 17 425 80 548 149 57
32 171 122 180 142 3 6 -37 -10 -87 -36 -185 -96 -544 -197 -726 -205 -108 -5
-98 2 53 36 54 12 97 24 95 26 -3 2 -49 -1 -104 -6 -127 -12 -401 -12 -529 0
-377 37 -664 131 -860 281 -35 27 -66 49 -69 49 -3 0 -8 -21 -12 -46z m301
-349 c180 -115 345 -172 630 -215 l120 -18 -110 -1 c-318 -3 -585 100 -764
295 -33 37 -61 71 -61 76 0 5 30 -17 68 -48 37 -32 90 -72 117 -89z m135 25
c186 -93 481 -160 700 -159 l95 1 -160 24 c-197 29 -364 70 -480 118 -86 35
-171 83 -162 92 2 2 37 -10 78 -27 134 -56 370 -109 679 -155 89 -13 346 -20
454 -13 67 5 151 17 188 27 38 11 68 16 68 12 0 -9 -77 -47 -143 -69 -30 -11
-99 -27 -153 -37 -143 -27 -468 -24 -654 5 -263 40 -474 112 -604 205 -82 58
-111 102 -33 49 28 -19 86 -52 127 -73z m110 -284 c160 -58 244 -70 494 -70
l228 -1 -58 -19 c-46 -15 -97 -20 -234 -23 -161 -4 -183 -2 -271 20 -52 14
-127 37 -165 52 -72 29 -204 110 -204 126 0 5 30 -6 68 -25 37 -18 101 -46
142 -60z"/>
<path d="M2776 1158 c-29 -137 -41 -185 -66 -260 -62 -184 -148 -318 -304
-473 -67 -67 -149 -136 -206 -174 -97 -65 -93 -70 16 -21 106 47 184 108 319
245 139 141 132 137 307 190 89 28 119 49 137 98 21 54 18 56 -56 42 -91 -18
-117 -29 -142 -61 -31 -40 -26 -47 19 -24 57 29 92 42 86 31 -6 -9 -210 -121
-220 -121 -2 0 15 44 39 98 56 128 74 204 82 340 6 103 0 145 -11 90z"/>
<path d="M30 866 c-29 -32 -22 -39 55 -57 41 -9 56 -8 85 4 l35 15 -37 1 c-68
2 -49 19 30 27 l77 8 -55 8 c-163 22 -163 22 -190 -6z"/>
<path d="M2627 860 c-31 -51 -167 -189 -251 -252 -103 -78 -255 -152 -374
-181 -50 -13 -95 -26 -98 -29 -3 -4 25 -9 63 -13 37 -4 72 -7 76 -8 14 -4
-150 -97 -231 -132 -143 -62 -260 -87 -407 -88 -85 0 -155 6 -204 17 -41 9
-76 15 -78 12 -6 -6 127 -53 192 -67 91 -20 379 -17 488 4 168 34 336 105 392
167 14 15 -2 11 -70 -21 -123 -57 -345 -128 -345 -110 0 3 44 21 98 39 345
118 622 350 749 628 27 60 27 81 0 34z"/>
<path d="M651 560 c51 -96 173 -215 277 -268 131 -68 247 -94 422 -94 203 0
323 34 430 122 49 40 34 45 -25 8 -137 -86 -349 -118 -548 -83 -96 17 -237 65
-282 96 -35 25 -20 22 76 -15 218 -82 494 -78 674 10 30 15 53 29 52 31 -2 2
-44 -6 -92 -18 -114 -27 -356 -29 -486 -5 -197 37 -349 110 -478 231 l-54 50
34 -65z"/>
<path d="M2622 502 c-109 -156 -339 -329 -554 -418 -87 -35 -88 -43 -3 -20
240 64 507 269 584 449 11 26 19 47 17 47 -2 0 -21 -26 -44 -58z"/>
<path d="M680 324 c0 -13 73 -75 140 -119 90 -59 150 -88 255 -123 155 -51
259 -66 465 -66 255 0 393 26 540 100 109 54 113 66 14 34 -193 -62 -279 -74
-519 -74 -178 -1 -236 3 -305 18 -131 28 -286 91 -355 145 l-20 15 20 -21 c11
-12 56 -43 100 -68 61 -36 72 -45 46 -40 -88 18 -256 102 -333 167 -27 21 -48
36 -48 32z"/>
</g>
</svg>
