<?xml version="1.0" standalone="no"?>
<!DOCTYPE svg PUBLIC "-//W3C//DTD SVG 20010904//EN"
 "http://www.w3.org/TR/2001/REC-SVG-20010904/DTD/svg10.dtd">
<svg version="1.0" xmlns="http://www.w3.org/2000/svg"
 width="300.000000pt" height="215.000000pt" viewBox="0 0 300.000000 215.000000"
 preserveAspectRatio="xMidYMid meet">

<g transform="translate(0.000000,215.000000) scale(0.100000,-0.100000)"
fill="#543714" stroke="none">
<path d="M653 2139 c-40 -15 -55 -53 -61 -154 -11 -207 63 -369 196 -431 23
-10 42 -23 42 -28 0 -13 -81 3 -122 24 -21 11 -38 16 -38 12 0 -16 70 -124
121 -189 184 -230 415 -301 652 -198 13 5 17 2 18 -11 0 -16 2 -15 10 4 5 13
13 20 19 17 5 -3 10 -2 10 3 0 5 60 10 133 10 72 1 146 5 162 10 18 5 -32 7
-127 4 l-158 -5 0 26 c0 14 -4 29 -10 32 -5 3 -10 -2 -10 -11 0 -11 -12 1 -28
27 -31 47 -63 76 -177 154 -147 101 -217 179 -281 310 l-44 90 0 -80 c-1 -44
-5 -89 -9 -100 -9 -21 -14 6 -27 150 -4 39 -16 88 -26 110 -26 51 -98 153
-130 182 -34 32 -89 52 -115 42z m87 -48 c32 -33 56 -80 76 -150 3 -8 7 -12 9
-9 3 3 -2 24 -10 48 -8 24 -13 45 -11 47 9 9 50 -62 67 -115 10 -32 19 -50 20
-42 3 30 18 -67 29 -190 6 -69 13 -136 16 -150 l5 -25 -25 28 c-22 24 -26 37
-26 91 0 46 -4 67 -16 77 -14 12 -15 7 -9 -46 l8 -60 -22 19 c-31 28 -70 99
-113 206 -21 52 -37 81 -34 65 8 -53 44 -137 95 -222 27 -46 44 -83 38 -84 -7
0 -2 -5 11 -11 31 -15 28 -32 -5 -24 -52 13 -133 75 -167 129 -36 57 -55 104
-37 93 5 -4 2 13 -9 36 -26 62 -33 122 -22 211 16 125 62 152 132 78z m260
-509 c0 -129 -1 -135 -17 -119 -12 12 -19 38 -21 85 -4 75 14 186 29 177 5 -4
9 -68 9 -143z m55 12 c8 -31 14 -40 14 -25 1 22 6 19 61 -35 33 -32 60 -68 61
-79 0 -12 3 -15 6 -7 4 10 12 7 31 -10 14 -13 22 -17 18 -10 -16 27 15 9 70
-40 32 -29 54 -47 50 -40 -20 33 35 -11 69 -55 42 -55 43 -63 10 -63 -14 0
-25 4 -25 10 0 5 -6 7 -14 4 -9 -3 -17 6 -24 25 -13 37 -21 40 -14 6 7 -37
-17 -32 -74 17 -27 23 -38 30 -25 15 14 -15 19 -27 12 -27 -22 0 -110 49 -124
71 -11 14 -16 17 -20 7 -2 -7 -11 2 -21 22 -8 19 -13 25 -10 13 8 -32 -6 -29
-54 13 l-42 36 0 102 c0 57 3 106 7 110 11 11 24 -9 38 -60z m-131 -96 c14
-13 27 -30 28 -38 2 -8 17 -21 33 -28 27 -13 28 -15 10 -21 -16 -7 -14 -9 14
-14 18 -4 30 -11 26 -17 -3 -5 2 -10 12 -10 24 0 115 -54 106 -63 -3 -4 6 -7
20 -7 35 0 34 -13 0 -26 -23 -8 -17 -10 29 -6 40 3 65 0 80 -10 13 -8 41 -18
63 -22 42 -8 43 -6 -12 -44 -12 -8 -8 -8 12 1 44 21 78 27 93 18 11 -6 11 -10
0 -18 -32 -25 -187 -65 -174 -45 4 6 -8 6 -29 -1 -41 -12 -54 -5 -34 20 12 15
11 14 -14 -1 -19 -13 -37 -17 -58 -12 -47 9 -99 37 -99 52 0 9 -11 14 -30 14
-16 0 -30 4 -30 8 0 5 -10 14 -22 19 -13 6 -43 28 -68 49 l-44 39 34 6 35 6
-37 2 c-30 1 -43 9 -77 49 -47 54 -51 66 -18 57 14 -4 7 3 -18 21 -38 27 -36
46 4 25 24 -13 34 -14 27 -3 -3 5 8 6 24 4 15 -2 36 1 47 7 27 15 39 13 67
-11z"/>
<path d="M660 1726 c0 -2 8 -10 18 -17 15 -13 16 -12 3 4 -13 16 -21 21 -21
13z"/>
<path d="M710 1673 c0 -5 17 -21 38 -37 l37 -29 -34 36 c-36 39 -41 42 -41 30z"/>
<path d="M1290 1377 c0 -2 15 -16 33 -33 l32 -29 -29 33 c-28 30 -36 37 -36
29z"/>
<path d="M895 1460 c11 -5 27 -9 35 -9 13 -1 13 0 0 9 -8 5 -24 9 -35 9 l-20
0 20 -9z"/>
<path d="M888 1423 c7 -3 16 -2 19 1 4 3 -2 6 -13 5 -11 0 -14 -3 -6 -6z"/>
<path d="M988 1363 c7 -3 16 -2 19 1 4 3 -2 6 -13 5 -11 0 -14 -3 -6 -6z"/>
<path d="M938 1353 c7 -3 16 -2 19 1 4 3 -2 6 -13 5 -11 0 -14 -3 -6 -6z"/>
<path d="M1229 1193 c-13 -16 -12 -17 4 -4 9 7 17 15 17 17 0 8 -8 3 -21 -13z"/>
<path d="M1285 1170 c-3 -6 1 -7 9 -4 18 7 21 14 7 14 -6 0 -13 -4 -16 -10z"/>
<path d="M2480 2082 c-15 -16 -33 -46 -39 -68 -16 -56 -14 -181 5 -295 8 -55
14 -107 12 -116 -3 -17 -149 157 -240 287 -84 120 -159 180 -225 180 -55 0
-81 -41 -60 -93 25 -59 87 -100 252 -166 91 -36 101 -44 171 -126 64 -76 119
-157 175 -262 24 -45 45 -80 47 -78 2 2 -15 41 -38 87 -45 88 -70 164 -70 212
0 16 22 77 49 135 88 189 99 268 44 311 -34 27 -49 25 -83 -8z m16 -102 c-17
-57 -25 -75 -25 -54 -1 28 24 127 37 149 15 24 10 -18 -12 -95z m84 30 c0 -47
-39 -173 -60 -194 -14 -14 -13 0 9 74 10 36 21 91 25 123 9 68 26 66 26 -3z
m-37 13 c-8 -62 -57 -229 -61 -211 -7 34 43 248 58 248 5 0 6 -17 3 -37z
m-522 -1 c24 -16 51 -37 59 -47 13 -16 8 -15 -25 4 -22 13 -52 31 -67 40 -27
15 -37 31 -20 31 4 0 28 -13 53 -28z m37 14 c27 -14 142 -128 142 -141 0 -6
-78 59 -170 142 -19 17 -6 17 28 -1z m416 1 c-2 -7 -11 -47 -19 -88 l-15 -74
5 67 c2 38 9 77 15 88 12 22 22 27 14 7z m-404 -88 c48 -32 97 -71 110 -85
l25 -27 -40 22 c-63 34 -198 134 -203 150 -6 17 -3 16 108 -60z m-1 -48 c41
-28 69 -51 62 -51 -26 0 -132 64 -161 97 -38 42 -39 66 -2 31 15 -15 60 -49
101 -77z"/>
<path d="M35 1846 c-28 -28 -31 -55 -11 -94 30 -57 137 -132 245 -173 31 -11
91 -36 134 -55 43 -20 83 -33 90 -30 7 2 2 8 -12 12 -13 4 -46 19 -75 33 -43
22 -61 40 -111 117 -83 124 -112 161 -149 183 -55 33 -83 35 -111 7z m116 -27
c25 -18 100 -114 124 -159 4 -8 -35 26 -86 76 -52 50 -103 97 -114 103 -17 11
-16 12 13 7 19 -3 47 -15 63 -27z m11 -76 c90 -88 125 -136 62 -86 -62 50
-170 163 -155 163 7 0 49 -35 93 -77z m-59 8 c32 -33 57 -62 57 -66 0 -10 -52
30 -81 62 -75 84 -55 87 24 4z m12 -57 c44 -41 51 -51 27 -38 -35 20 -112 94
-97 94 6 -1 37 -26 70 -56z"/>
<path d="M1947 1764 c-8 -8 2 -35 22 -58 17 -20 140 -80 148 -72 9 9 -30 57
-80 96 -46 37 -75 48 -90 34z"/>
<path d="M410 1666 c0 -24 45 -79 93 -114 26 -19 50 -32 53 -29 9 9 -33 81
-70 120 -37 37 -76 49 -76 23z"/>
<path d="M1830 1567 c3 -3 61 -15 130 -27 68 -11 156 -30 195 -41 168 -51 297
-146 352 -262 16 -34 35 -73 42 -87 10 -22 11 -19 6 25 -17 164 -177 310 -405
370 -61 16 -331 34 -320 22z"/>
<path d="M1390 1549 c-116 -20 -75 -29 126 -29 168 0 214 -3 279 -20 92 -23
150 -55 194 -106 39 -43 48 -40 26 11 -8 21 -13 41 -10 44 10 9 75 -31 105
-66 37 -42 45 -86 25 -142 -20 -59 -11 -65 15 -10 24 55 25 114 3 157 -40 73
-180 138 -347 161 -91 13 -337 13 -416 0z"/>
<path d="M467 1436 c-192 -79 -263 -225 -190 -391 23 -52 26 -72 24 -151 -3
-111 19 -173 83 -232 87 -80 184 -120 371 -152 77 -13 134 -29 173 -49 249
-126 559 -221 820 -252 103 -12 124 -22 75 -33 -71 -17 -135 -38 -130 -42 3
-3 56 8 119 25 73 19 151 32 223 36 217 13 418 61 558 132 66 33 54 39 -15 9
-120 -53 -375 -106 -513 -106 l-50 0 35 22 c123 76 187 125 285 218 159 152
147 146 295 152 138 6 188 21 216 63 16 25 16 27 -3 53 -19 24 -27 27 -76 25
-62 -2 -133 -34 -230 -104 -31 -23 -59 -40 -61 -38 -10 10 89 161 132 201 46
43 52 46 125 52 98 10 179 29 212 50 61 40 48 116 -19 116 -67 0 -147 -45
-269 -152 -26 -23 -50 -39 -53 -36 -7 8 31 124 83 253 53 128 64 204 39 253
-13 25 -23 32 -45 32 -67 0 -84 -76 -56 -253 l17 -112 -35 -96 c-39 -107 -66
-164 -74 -156 -2 3 3 51 13 107 27 166 9 258 -56 283 -24 9 -30 18 -35 58 -4
31 -15 55 -31 70 -22 21 -24 21 -24 3 1 -10 9 -44 20 -74 16 -46 17 -61 8 -93
-15 -49 -1 -107 51 -224 53 -119 50 -156 -27 -271 -83 -125 -91 -124 -68 11
35 209 13 317 -65 317 -25 0 -33 -6 -45 -37 -19 -45 -10 -90 47 -216 52 -116
50 -178 -8 -240 -57 -59 -228 -185 -238 -175 -5 4 12 128 18 134 2 2 38 13 81
24 105 27 129 42 51 33 -33 -4 -73 -7 -89 -8 l-29 0 2 72 c4 125 -35 204 -94
189 -53 -13 -57 -93 -10 -207 l25 -62 -149 6 c-82 4 -159 11 -172 16 -22 8
-21 9 16 14 22 4 78 9 123 13 163 12 138 22 -58 23 -383 2 -550 31 -780 137
-78 36 -90 39 -67 19 68 -60 218 -131 337 -159 363 -84 467 -102 654 -112 148
-8 146 -5 120 -131 -3 -14 -20 -31 -47 -44 -41 -21 -46 -22 -162 -10 -246 25
-452 77 -695 174 l-155 62 68 3 c37 2 67 6 67 11 0 4 -52 15 -117 25 -126 19
-154 30 -283 114 -146 94 -262 235 -327 397 -38 95 -59 111 -49 39 4 -27 12
-64 18 -82 15 -51 4 -48 -29 5 -45 74 -63 128 -63 189 0 103 58 177 194 245
87 43 83 52 -7 15z m2175 -153 c-5 -82 -22 -100 -22 -24 0 44 16 110 24 100 1
-2 1 -37 -2 -76z m55 30 c-3 -10 -5 -2 -5 17 0 19 2 27 5 18 2 -10 2 -26 0
-35z m-27 -60 c0 -72 -3 -94 -11 -86 -8 8 -9 38 -4 97 4 47 9 86 11 86 2 0 4
-44 4 -97z m45 -41 c-11 -57 -17 -28 -8 39 6 50 9 56 11 30 2 -19 1 -50 -3
-69z m-201 -142 c4 -31 3 -37 -2 -20 -18 53 -24 85 -13 75 5 -5 12 -30 15 -55z
m-46 -47 c11 -46 16 -83 13 -83 -14 0 -41 96 -40 140 1 53 2 50 27 -57z m32 1
c18 -89 7 -112 -13 -25 -19 80 -22 127 -8 101 4 -8 14 -42 21 -76z m410 -29
c-14 -8 -34 -14 -45 -14 -15 0 -13 3 10 14 40 18 67 18 35 0z m15 -24 c-13
-12 -122 -51 -142 -51 -26 0 -9 10 59 36 66 24 99 30 83 15z m30 -21 c-20 -22
-103 -50 -144 -49 -16 0 3 11 52 28 43 16 81 31 84 35 17 16 24 4 8 -14z
m-2555 -98 c59 -69 178 -173 278 -243 35 -24 58 -45 52 -47 -18 -6 -192 48
-243 75 -105 58 -156 134 -164 243 -6 74 -11 76 77 -28z m1955 22 c6 -44 1
-37 -14 20 -7 26 -7 36 0 29 5 -5 12 -27 14 -49z m-44 -49 c17 -91 10 -103
-15 -28 -16 47 -22 133 -9 119 4 -4 15 -45 24 -91z m29 8 c6 -38 14 -77 17
-88 4 -14 2 -17 -5 -10 -6 6 -18 45 -26 87 -19 90 -19 91 -7 84 5 -3 14 -36
21 -73z m455 -102 c-12 -11 -75 -25 -75 -17 0 3 15 10 33 15 43 12 53 13 42 2z
m4 -31 c-18 -11 -135 -40 -159 -40 -45 1 104 48 155 49 17 0 18 -1 4 -9z
m-784 -90 c19 -95 18 -105 -5 -55 -11 24 -18 62 -18 95 0 65 2 60 23 -40z m50
30 c4 -30 3 -38 -3 -25 -15 33 -24 91 -13 80 6 -6 13 -30 16 -55z m756 36
c-15 -18 -89 -36 -143 -35 -41 1 -39 1 24 15 37 8 78 19 90 24 33 13 42 12 29
-4z m-766 -126 l5 -45 -15 45 c-9 25 -18 65 -20 90 l-5 45 15 -45 c9 -25 18
-65 20 -90z"/>
<path d="M603 1348 c-34 -37 -43 -64 -43 -121 0 -44 5 -62 30 -95 77 -106 252
-184 525 -233 220 -40 664 -28 776 21 19 8 14 9 -26 5 -145 -16 -367 -16 -505
-1 -215 23 -290 45 -469 137 -84 44 -155 79 -156 77 -2 -2 19 -27 46 -57 27
-30 47 -56 44 -59 -11 -11 -143 65 -186 108 -65 65 -72 118 -25 208 20 38 17
40 -11 10z"/>
<path d="M2335 1335 c4 -11 10 -45 12 -76 8 -91 -42 -163 -170 -243 -133 -85
-374 -162 -627 -201 -224 -34 -224 -34 -65 -31 222 5 450 59 634 150 120 59
189 118 229 196 29 57 33 70 27 115 -4 27 -16 64 -27 80 -11 17 -17 21 -13 10z"/>
<path d="M1501 1314 c0 -11 3 -14 6 -6 3 7 2 16 -1 19 -3 4 -6 -2 -5 -13z"/>
<path d="M2216 1256 c-15 -98 -126 -172 -339 -226 -96 -24 -108 -29 -83 -36
16 -4 61 -2 100 4 198 31 331 118 343 225 3 25 1 53 -4 62 -8 14 -12 9 -17
-29z"/>
<path d="M362 1278 c-7 -7 -12 -23 -12 -36 0 -32 34 -26 38 7 5 29 -10 45 -26
29z"/>
<path d="M472 1192 c14 -152 135 -274 325 -327 101 -28 93 -12 -23 45 -137 68
-229 152 -262 243 -12 32 -22 67 -22 77 0 11 -5 20 -11 20 -8 0 -10 -18 -7
-58z"/>
<path d="M83 1003 c-22 -46 -29 -75 -31 -138 -5 -116 29 -153 64 -70 27 65 30
265 4 265 -5 0 -21 -26 -37 -57z"/>
<path d="M2080 840 c-144 -48 -280 -77 -437 -92 -68 -6 -123 -15 -123 -19 0
-12 100 -16 218 -8 77 5 148 16 206 34 103 30 225 84 245 108 7 9 12 17 10 16
-2 0 -56 -18 -119 -39z"/>
<path d="M786 821 c-8 -12 21 -41 40 -41 25 0 13 44 -13 48 -11 2 -24 -1 -27
-7z"/>
<path d="M221 773 c28 -77 120 -242 180 -325 38 -51 91 -130 119 -174 118
-193 218 -268 288 -218 26 18 29 61 8 103 -20 37 -76 75 -219 146 l-121 60
-68 95 c-37 52 -95 150 -129 218 -58 117 -80 153 -58 95z m475 -579 c84 -64
114 -94 93 -94 -17 0 -161 113 -199 156 l-25 28 30 -18 c17 -10 62 -42 101
-72z m-23 60 c59 -30 119 -78 134 -107 8 -16 13 -30 11 -32 -2 -2 -30 20 -64
49 -33 28 -76 64 -95 79 -39 30 -33 35 14 11z m62 -192 c-2 -2 -24 10 -48 27
-40 27 -117 117 -117 136 0 5 38 -30 84 -76 47 -46 83 -85 81 -87z m55 6 c0
-15 -54 20 -90 58 l-35 37 63 -44 c34 -23 62 -47 62 -51z"/>
<path d="M1102 748 c6 -16 111 -45 192 -54 56 -6 60 -5 46 10 -18 18 -157 56
-207 56 -23 0 -33 -4 -31 -12z"/>
<path d="M780 691 c0 -5 22 -23 48 -40 34 -21 61 -31 88 -31 37 1 38 1 19 16
-29 23 -117 64 -137 64 -10 0 -18 -4 -18 -9z"/>
<path d="M1431 642 c-11 -8 -10 -11 6 -16 51 -16 226 -24 338 -16 66 5 122 10
124 10 3 0 1 4 -5 9 -13 13 -445 25 -463 13z"/>
<path d="M2490 560 c0 -17 -119 -137 -175 -175 -30 -21 -55 -40 -55 -43 0 -3
16 -2 37 1 51 9 136 68 172 121 34 49 51 106 32 106 -6 0 -11 -4 -11 -10z"/>
<path d="M730 448 c118 -106 308 -210 445 -242 47 -11 22 6 -110 77 -66 36
-174 97 -239 136 -66 39 -124 71 -130 71 -6 -1 9 -19 34 -42z"/>
<path d="M1200 451 c81 -43 322 -93 344 -71 14 14 -280 91 -348 90 l-31 -1 35
-18z"/>
<path d="M580 410 c0 -13 77 -49 103 -50 27 0 20 18 -15 40 -35 21 -88 27 -88
10z"/>
<path d="M1665 370 c-7 -11 35 -30 63 -30 25 0 46 16 38 29 -9 14 -93 15 -101
1z"/>
<path d="M1978 314 c-20 -7 -58 -16 -83 -19 -69 -11 -64 -25 9 -25 54 0 69 4
93 24 35 30 29 37 -19 20z"/>
<path d="M910 162 c0 -15 54 -59 98 -82 71 -35 187 -60 281 -60 51 0 81 4 75
9 -5 5 -58 19 -119 30 -128 25 -219 53 -287 87 -26 13 -48 21 -48 16z"/>
<path d="M1402 110 c10 -6 52 -20 95 -31 134 -34 414 -23 490 19 8 5 -83 8
-204 8 -120 -1 -258 3 -308 7 -65 5 -85 5 -73 -3z"/>
</g>
</svg>
