<?xml version="1.0" standalone="no"?>
<!DOCTYPE svg PUBLIC "-//W3C//DTD SVG 20010904//EN"
 "http://www.w3.org/TR/2001/REC-SVG-20010904/DTD/svg10.dtd">
<svg version="1.0" xmlns="http://www.w3.org/2000/svg"
 width="1346.000000pt" height="786.000000pt" viewBox="0 0 1346.000000 786.000000"
 preserveAspectRatio="xMidYMid meet">

<g transform="translate(0.000000,786.000000) scale(0.100000,-0.100000)"
fill="#543714" stroke="none">
<path d="M13265 7808 c-7 -16 -22 -25 -47 -29 -22 -3 -48 -17 -62 -32 -14 -15
-34 -27 -44 -27 -10 0 -37 -13 -58 -30 -92 -70 -191 -134 -248 -160 -34 -16
-67 -38 -74 -49 -8 -15 -22 -21 -46 -21 -25 0 -47 -11 -82 -40 -27 -22 -91
-61 -142 -87 -52 -27 -98 -55 -103 -65 -5 -9 -26 -19 -48 -23 -22 -3 -49 -17
-62 -31 -14 -15 -34 -24 -54 -24 -21 0 -39 -8 -54 -25 -27 -32 -1062 -549
-1115 -558 -23 -4 -45 -16 -57 -31 -13 -17 -30 -26 -48 -26 -15 0 -43 -11 -61
-25 -19 -14 -79 -39 -133 -56 -54 -17 -107 -39 -119 -51 -11 -11 -38 -23 -60
-26 -27 -3 -44 -12 -55 -28 -10 -15 -25 -24 -42 -24 -14 0 -43 -9 -64 -20 -36
-19 -62 -21 -360 -27 -330 -6 -1294 10 -1722 27 -1031 44 -2540 242 -3388 446
-103 25 -202 44 -219 42 -19 -2 -38 -13 -50 -29 -45 -60 -27 -169 28 -169 14
0 44 -11 67 -25 30 -17 85 -31 192 -50 159 -27 198 -36 285 -65 30 -10 105
-25 165 -34 61 -8 216 -33 345 -55 255 -44 593 -91 1040 -145 735 -90 1148
-118 2250 -156 168 -6 355 -15 415 -21 95 -8 113 -13 134 -34 32 -32 17 -50
-49 -59 -28 -4 -67 -18 -86 -31 -20 -14 -48 -25 -62 -25 -14 0 -36 -10 -49
-22 -16 -15 -42 -24 -83 -29 -35 -4 -69 -15 -85 -27 -14 -11 -76 -37 -138 -57
-62 -20 -123 -44 -137 -53 -14 -9 -49 -19 -79 -23 -35 -5 -58 -14 -67 -27 -9
-13 -31 -22 -68 -26 -31 -4 -66 -16 -81 -27 -14 -11 -51 -24 -83 -29 -31 -5
-75 -18 -97 -29 -22 -11 -179 -66 -350 -122 -170 -56 -344 -115 -385 -131 -41
-15 -101 -31 -134 -35 -40 -4 -64 -12 -77 -27 -14 -14 -38 -22 -85 -27 -41 -4
-76 -14 -92 -26 -15 -11 -49 -23 -77 -27 -27 -5 -66 -16 -87 -27 -162 -83
-1395 113 -2528 402 -129 33 -284 71 -343 84 -60 14 -169 45 -242 70 -74 25
-163 48 -197 52 -46 5 -67 12 -83 29 -13 14 -41 26 -77 33 -117 21 -555 160
-716 227 -45 19 -96 34 -112 34 -17 0 -39 9 -51 21 -23 23 -73 38 -123 39 -17
0 -39 9 -50 19 -12 11 -73 37 -136 59 -63 22 -158 58 -211 81 -53 22 -112 44
-130 48 -19 3 -47 17 -62 29 -15 13 -60 33 -100 44 -97 28 -120 38 -158 66
-18 13 -45 24 -59 24 -15 0 -39 11 -53 24 -14 13 -50 33 -79 44 -29 11 -100
36 -157 57 -57 21 -115 49 -129 62 -14 13 -37 23 -54 23 -18 0 -38 9 -51 24
-13 13 -40 27 -60 31 -24 5 -44 16 -54 31 -8 13 -22 24 -31 24 -33 0 -433 189
-507 239 -41 28 -148 63 -182 59 -38 -4 -77 -62 -69 -103 8 -40 66 -97 151
-150 114 -72 735 -371 849 -409 28 -10 56 -25 63 -35 7 -10 29 -22 50 -26 21
-3 47 -15 59 -26 11 -10 69 -35 129 -54 60 -20 119 -44 130 -54 11 -11 45 -26
75 -34 30 -8 138 -51 240 -96 102 -45 215 -90 252 -100 37 -9 76 -25 87 -35
10 -9 47 -21 82 -26 35 -5 65 -14 67 -19 9 -27 1073 -387 1206 -408 22 -3 76
-19 118 -35 112 -40 393 -116 462 -124 39 -5 66 -14 79 -27 15 -15 41 -22 107
-28 55 -5 102 -16 126 -28 22 -11 89 -30 149 -41 61 -12 155 -32 210 -45 55
-13 134 -29 175 -35 41 -7 109 -23 150 -37 41 -13 219 -48 395 -78 500 -85
585 -105 585 -136 0 -18 -126 -68 -201 -80 -40 -6 -106 -24 -146 -41 -95 -37
-215 -68 -268 -68 -26 0 -61 -10 -90 -26 -26 -14 -89 -34 -139 -44 -50 -10
-220 -51 -377 -89 -359 -88 -437 -106 -628 -141 -85 -16 -171 -39 -194 -51
-106 -55 -441 -19 -491 53 -8 11 -41 29 -73 40 -79 26 -542 257 -625 311 -37
25 -84 48 -105 52 -20 4 -47 18 -60 31 -13 15 -33 24 -51 24 -18 0 -36 9 -50
25 -14 16 -32 25 -51 25 -19 0 -42 11 -61 29 -18 16 -78 54 -134 84 -56 31
-110 65 -120 76 -10 11 -38 23 -62 27 -28 4 -48 14 -57 28 -8 12 -44 36 -81
55 -36 18 -71 41 -76 51 -5 10 -26 21 -47 25 -21 4 -54 21 -75 40 -20 19 -55
39 -77 46 -35 10 -46 10 -82 -6 -40 -19 -89 -66 -89 -88 0 -22 146 -153 203
-182 31 -17 60 -37 62 -46 6 -17 34 -29 72 -29 12 0 42 -18 67 -39 25 -22 83
-58 128 -81 46 -22 93 -52 106 -66 14 -15 34 -24 53 -24 19 0 38 -9 52 -24 12
-13 38 -27 57 -31 19 -4 60 -24 90 -45 30 -21 120 -72 200 -115 171 -91 208
-112 235 -135 11 -10 38 -21 60 -25 22 -4 49 -17 62 -31 13 -15 33 -24 51 -24
18 0 36 -9 50 -25 14 -16 32 -25 52 -25 20 0 38 -9 52 -25 13 -16 36 -27 65
-31 51 -8 61 -19 38 -44 -30 -33 -110 -59 -251 -80 -155 -24 -393 -72 -439
-90 -39 -15 -45 -26 -45 -82 0 -39 6 -54 32 -84 37 -42 19 -43 283 9 99 19
257 47 350 62 261 41 316 53 337 72 15 13 41 19 102 21 76 4 84 2 113 -22 17
-14 42 -26 55 -26 13 0 40 -11 59 -25 19 -14 78 -40 132 -56 54 -17 110 -42
126 -55 16 -13 42 -24 58 -24 18 0 41 -10 57 -25 15 -14 66 -37 124 -54 53
-17 113 -42 132 -56 21 -16 47 -25 70 -25 19 0 55 -11 80 -24 25 -13 90 -38
145 -55 55 -18 113 -42 130 -53 16 -12 52 -25 79 -30 28 -4 62 -16 77 -27 15
-11 51 -23 80 -27 30 -4 73 -18 97 -30 24 -13 82 -35 129 -49 86 -27 133 -50
133 -66 0 -13 -52 -37 -101 -48 -48 -11 -850 -116 -1184 -155 -401 -47 -726
-76 -861 -76 -67 0 -73 2 -125 41 -30 22 -91 59 -137 81 -46 22 -89 49 -95 59
-7 11 -28 24 -47 29 -19 5 -57 28 -83 50 -27 22 -68 45 -90 52 -23 7 -53 25
-66 41 -13 15 -40 36 -60 46 -20 11 -67 42 -106 71 -38 28 -82 54 -98 57 -16
3 -34 14 -40 25 -7 11 -38 35 -70 54 -31 20 -81 56 -110 81 -28 24 -68 51 -87
59 -19 8 -56 33 -81 54 -26 21 -70 53 -99 70 -30 18 -79 54 -109 81 -31 28
-68 53 -84 56 -15 3 -53 29 -85 57 -78 69 -283 225 -339 257 -24 14 -77 55
-116 89 -40 35 -88 70 -107 78 -19 8 -57 35 -85 61 -27 26 -85 73 -128 104
-101 75 -152 121 -177 162 -73 118 -128 429 -176 985 -19 228 -34 286 -82 313
-38 22 -69 18 -109 -17 l-28 -24 2 -139 c1 -76 11 -266 22 -422 21 -281 20
-378 -4 -388 -21 -8 -66 21 -148 96 -42 39 -96 83 -120 98 -23 14 -73 53 -111
86 -140 121 -231 128 -254 21 -7 -30 -5 -48 6 -70 21 -42 101 -123 144 -145
20 -10 72 -52 115 -92 95 -88 167 -147 180 -147 5 0 58 -43 117 -95 59 -53
121 -102 136 -110 58 -30 105 -126 120 -243 6 -43 15 -70 28 -82 14 -13 22
-38 27 -84 4 -42 14 -74 27 -91 11 -14 23 -50 27 -79 4 -30 16 -67 26 -82 10
-16 22 -52 26 -81 4 -31 15 -59 28 -72 11 -11 32 -60 47 -108 27 -91 48 -138
69 -159 7 -7 15 -31 19 -53 4 -26 12 -42 25 -46 12 -4 23 -22 31 -53 15 -61
116 -270 169 -348 23 -34 41 -73 41 -86 0 -14 12 -38 26 -54 34 -36 74 -121
74 -156 0 -39 -25 -48 -137 -48 -143 -1 -298 -17 -337 -35 -55 -26 -71 -83
-36 -128 30 -38 87 -45 410 -55 195 -6 293 -13 312 -22 15 -7 39 -36 57 -69
17 -31 68 -100 115 -154 46 -54 91 -112 100 -130 45 -94 647 -703 868 -879
194 -155 278 -219 328 -251 30 -19 66 -47 80 -62 14 -15 55 -42 91 -60 37 -19
69 -41 72 -49 3 -8 37 -31 74 -50 37 -19 78 -46 90 -60 16 -18 33 -26 57 -26
25 0 38 -6 50 -25 25 -39 650 -345 704 -345 9 0 27 -11 41 -24 16 -15 67 -37
128 -56 56 -17 114 -41 129 -53 17 -13 50 -24 86 -28 39 -5 67 -14 81 -27 14
-13 47 -25 89 -31 36 -6 119 -29 185 -50 257 -85 750 -174 1123 -202 213 -17
892 -17 1120 0 326 23 780 89 843 121 22 12 71 25 110 30 52 6 81 16 111 37
42 30 86 86 86 110 0 24 -54 70 -97 83 -36 11 -52 10 -120 -8 -223 -60 -634
-129 -843 -142 -202 -13 -1078 -13 -1290 0 -238 15 -608 71 -656 99 -27 16
-66 26 -132 32 -89 9 -226 45 -284 75 -14 7 -59 19 -100 25 -54 9 -79 18 -96
35 -16 17 -34 24 -59 24 -22 0 -101 28 -211 76 -97 42 -191 78 -210 81 -19 4
-40 15 -48 28 -9 13 -30 26 -49 29 -45 9 -221 98 -259 131 -19 16 -41 25 -63
25 -23 0 -40 8 -54 24 -12 14 -38 27 -60 31 -24 4 -43 15 -54 31 -8 13 -24 24
-34 24 -10 0 -48 22 -84 49 -37 27 -82 52 -101 55 -20 4 -41 16 -50 31 -9 14
-41 39 -70 56 -30 16 -74 47 -98 68 -23 21 -62 48 -85 59 -23 12 -72 48 -110
81 -37 33 -87 70 -110 82 -68 35 -210 165 -514 468 -304 304 -469 484 -495
541 -9 19 -36 56 -60 82 -24 26 -44 54 -44 61 0 18 38 34 115 46 109 17 168
22 435 31 152 5 314 16 380 26 88 14 182 18 405 18 l290 1 55 -36 c30 -20 86
-53 123 -74 38 -20 83 -50 101 -66 19 -16 45 -29 60 -29 16 0 36 -10 49 -24
13 -13 41 -28 62 -32 22 -4 50 -18 62 -30 13 -14 34 -24 49 -24 16 0 36 -10
50 -25 13 -14 34 -25 49 -25 15 0 36 -11 48 -24 13 -13 41 -28 62 -32 22 -4
50 -18 62 -30 13 -14 34 -24 49 -24 16 0 36 -10 50 -25 13 -14 34 -25 49 -25
15 0 36 -11 48 -24 13 -13 41 -28 62 -32 22 -4 50 -18 62 -30 13 -14 34 -24
49 -24 15 0 37 -9 49 -20 12 -12 66 -36 119 -55 151 -53 218 -97 190 -125 -23
-23 -344 -61 -839 -100 -315 -25 -358 -33 -385 -67 -24 -31 -26 -89 -5 -120
27 -38 75 -46 229 -39 468 23 1215 92 1430 133 83 16 94 16 170 0 45 -9 107
-30 140 -47 32 -17 81 -34 108 -37 32 -4 57 -14 69 -26 13 -14 38 -23 80 -28
41 -5 67 -13 80 -27 11 -13 37 -23 66 -26 27 -4 109 -26 183 -51 225 -75 508
-154 574 -161 37 -3 72 -14 90 -26 18 -13 54 -23 95 -28 37 -4 81 -17 101 -28
19 -12 87 -32 150 -46 63 -14 182 -41 263 -60 81 -20 205 -47 275 -60 153 -28
172 -36 172 -76 0 -36 -31 -55 -105 -65 -28 -4 -135 -20 -240 -36 -223 -33
-561 -72 -835 -94 -277 -23 -385 -49 -411 -97 -13 -25 2 -67 38 -100 25 -23
27 -23 241 -22 241 2 476 20 837 64 253 31 296 40 319 63 9 8 47 17 98 21 53
4 97 14 123 28 23 12 67 23 105 25 46 4 75 12 101 29 43 30 142 49 320 65 148
12 222 7 319 -22 36 -10 211 -42 389 -70 178 -27 380 -61 450 -75 149 -28 172
-29 216 -8 56 26 84 125 46 163 -32 32 -244 75 -526 106 -181 20 -243 33 -253
51 -6 10 -33 19 -77 24 -81 10 -96 21 -69 51 23 26 83 57 190 98 45 17 112 52
150 76 38 25 77 45 86 45 10 0 25 11 33 24 11 16 30 27 55 31 21 4 46 15 55
25 10 11 54 37 99 60 44 22 123 72 174 110 52 39 102 70 113 70 11 0 29 12 42
26 12 14 53 46 92 71 38 25 99 70 134 101 36 30 80 61 98 68 17 8 72 52 122
98 50 46 145 131 213 187 67 57 149 129 182 160 34 31 72 62 86 70 19 10 103
15 345 20 347 7 376 11 410 63 16 24 16 28 -2 63 -33 65 -69 75 -280 84 -144
5 -188 10 -208 23 -14 9 -25 23 -25 31 0 8 37 56 83 107 46 51 111 129 144
173 34 44 78 98 98 120 20 22 43 54 51 72 22 51 220 173 281 173 13 0 29 11
38 24 10 16 29 26 56 30 22 4 76 24 119 46 107 54 245 110 269 110 11 0 28 11
36 24 11 16 30 27 54 31 22 4 48 17 60 31 13 15 32 24 50 24 43 0 55 21 48 85
-15 148 -44 149 -347 16 -63 -28 -124 -51 -136 -51 -11 0 -30 -11 -42 -25 -18
-21 -31 -25 -76 -25 -88 0 -112 21 -61 54 16 11 25 26 25 42 0 15 18 54 41 88
49 73 153 284 168 344 7 24 22 48 35 57 14 10 26 29 29 50 3 19 24 75 47 125
22 50 45 114 51 142 8 36 17 52 31 56 11 3 21 16 25 34 10 50 40 61 197 70
180 10 229 21 261 60 30 36 32 67 4 101 -25 33 -67 44 -199 52 -157 9 -150 6
-150 69 0 39 6 60 21 79 14 19 23 51 29 113 5 47 14 92 20 99 6 7 15 28 21 47
17 61 88 501 114 712 14 114 30 227 36 251 24 95 -31 175 -120 175 -92 0 -97
-19 -150 -516 -31 -290 -34 -308 -59 -336 -9 -11 -18 -54 -23 -109 -10 -105
-96 -435 -133 -507 -46 -90 -83 -107 -271 -121 -303 -24 -685 -32 -1765 -38
-1404 -7 -1758 2 -2536 63 -266 20 -298 25 -302 46 -5 25 69 74 122 82 25 4
56 16 71 27 17 14 46 23 88 26 34 3 72 11 84 19 38 24 158 68 483 179 173 59
344 121 380 138 39 19 90 34 128 38 43 4 70 13 85 27 12 11 73 37 134 57 62
20 117 43 122 52 5 10 31 19 68 24 32 5 79 19 104 33 24 13 78 34 119 47 81
23 129 45 145 64 6 6 33 17 60 23 28 6 115 41 195 77 120 55 161 68 240 80
168 25 384 36 865 45 289 5 484 13 507 20 29 8 44 22 64 56 31 53 27 87 -15
109 -41 21 -96 25 -434 34 -185 5 -301 11 -308 18 -7 7 -2 17 18 31 47 33 283
142 342 158 30 7 66 25 80 38 33 31 227 126 257 126 14 0 30 10 39 24 11 16
30 27 54 31 22 4 48 17 60 31 13 15 32 24 51 24 18 0 38 9 52 24 13 13 40 26
62 29 21 4 48 15 60 26 24 22 226 136 363 205 51 25 97 55 103 66 8 14 21 20
45 20 23 0 41 8 57 24 13 14 64 45 114 70 49 25 120 68 157 95 37 27 111 71
163 97 53 26 98 53 101 61 3 7 29 25 59 39 49 23 204 155 204 174 0 15 -115
130 -130 130 -9 0 -20 -10 -25 -22z m-5905 -2993 c787 -74 870 -80 1357 -96
486 -15 3137 -7 3428 11 116 8 222 10 238 7 24 -7 27 -12 27 -50 0 -30 -6 -48
-19 -59 -11 -9 -33 -59 -49 -110 -32 -101 -57 -158 -71 -158 -5 0 -11 -19 -15
-42 -4 -25 -17 -50 -31 -64 -16 -14 -25 -34 -25 -52 0 -18 -9 -36 -25 -50 -16
-14 -25 -32 -25 -52 0 -18 -11 -42 -28 -62 -16 -18 -50 -73 -76 -121 -26 -49
-61 -103 -77 -121 -16 -19 -32 -47 -35 -63 -3 -17 -24 -54 -46 -84 -22 -29
-46 -67 -54 -84 -7 -17 -21 -38 -31 -47 -27 -25 -104 -58 -135 -58 -14 0 -40
-11 -56 -25 -16 -13 -79 -41 -141 -60 -61 -20 -115 -43 -120 -52 -5 -10 -30
-19 -63 -23 -30 -4 -81 -20 -113 -35 -33 -14 -127 -49 -210 -77 -82 -27 -172
-60 -200 -73 -27 -13 -70 -26 -95 -30 -24 -4 -83 -22 -130 -41 -121 -46 -308
-102 -387 -114 -42 -7 -74 -18 -85 -30 -23 -24 -66 -37 -168 -50 -236 -29
-656 4 -1280 101 -107 16 -269 41 -360 55 -91 13 -210 38 -265 54 -55 16 -143
37 -195 45 -280 47 -514 96 -543 114 -18 10 -59 22 -92 26 -71 9 -85 18 -85
56 0 39 18 46 152 64 62 8 199 30 303 49 105 19 213 37 241 41 29 4 78 20 110
36 33 16 70 29 84 29 14 0 79 12 145 25 66 14 196 41 288 59 92 19 174 40 183
47 8 7 57 18 109 25 52 7 108 20 124 28 46 24 389 118 466 127 54 7 74 14 86
31 13 16 32 23 81 29 35 4 104 21 154 38 49 17 123 42 164 56 83 28 130 70
130 116 0 38 -55 83 -119 99 -58 14 -90 8 -131 -21 -16 -13 -53 -24 -96 -29
-38 -5 -70 -13 -72 -19 -7 -20 -39 -31 -166 -56 -69 -14 -167 -39 -218 -56
-177 -59 -654 -179 -734 -185 -58 -5 -88 -12 -114 -29 -23 -15 -64 -28 -115
-35 -44 -6 -136 -24 -205 -40 -69 -16 -166 -36 -216 -45 -50 -8 -118 -24 -150
-36 -62 -21 -421 -86 -767 -139 -38 -5 -83 -18 -100 -27 -18 -9 -57 -20 -87
-23 -120 -15 -392 24 -497 70 -25 11 -78 25 -117 31 -49 8 -77 18 -89 31 -12
15 -36 23 -82 27 -46 5 -69 12 -78 26 -10 13 -34 21 -81 26 -41 5 -77 16 -92
28 -14 11 -50 23 -80 27 -37 4 -59 13 -68 26 -9 13 -32 22 -69 27 -31 4 -62
12 -69 18 -15 13 -87 40 -192 73 -37 11 -80 30 -95 40 -14 11 -75 36 -136 55
-60 20 -119 45 -131 56 -12 12 -42 22 -72 26 -31 3 -65 15 -84 29 -17 13 -41
24 -53 24 -40 0 -130 78 -111 97 3 3 36 9 73 13 38 3 86 16 108 28 22 11 83
28 135 37 52 9 318 72 590 141 272 68 548 135 615 149 66 14 131 33 145 43 14
11 53 22 89 26 39 4 81 17 105 31 27 15 84 31 166 45 149 26 190 37 212 60 9
10 40 20 74 25 31 4 82 15 113 26 49 17 75 19 211 14 85 -3 225 -12 310 -20z
m-6148 -364 c7 -10 31 -26 52 -35 21 -9 69 -43 108 -76 38 -33 86 -69 106 -79
20 -11 69 -47 107 -81 39 -34 84 -68 100 -75 17 -7 64 -43 105 -79 41 -36 89
-72 107 -81 17 -8 69 -45 115 -82 46 -36 98 -72 116 -80 18 -8 52 -31 75 -52
23 -21 70 -55 105 -75 34 -21 69 -48 78 -60 8 -13 27 -26 43 -29 15 -3 52 -24
82 -47 30 -23 84 -59 121 -81 37 -21 69 -47 73 -58 3 -10 22 -23 44 -30 22 -6
66 -31 98 -55 32 -24 79 -55 106 -70 26 -16 56 -39 66 -52 10 -13 34 -27 52
-30 64 -12 102 -71 61 -93 -79 -42 -1144 -102 -1277 -71 -47 10 -91 57 -106
112 -5 21 -18 42 -28 47 -10 6 -39 52 -64 103 -26 51 -65 115 -87 142 -26 32
-40 58 -40 77 0 19 -9 37 -25 51 -16 14 -25 32 -25 50 0 18 -9 38 -24 51 -13
13 -27 40 -31 60 -4 21 -16 43 -26 51 -11 7 -26 36 -34 63 -8 28 -31 85 -50
128 -20 42 -40 98 -46 123 -5 27 -19 54 -31 63 -15 12 -23 33 -29 74 -4 31
-15 65 -24 75 -10 11 -20 48 -25 86 -7 52 -14 72 -31 85 -33 25 -19 49 30 49
28 0 44 -6 53 -19z m5351 -1285 c56 -26 206 -64 722 -181 487 -111 539 -122
665 -140 178 -25 232 -36 265 -53 19 -10 75 -18 156 -23 96 -6 135 -12 163
-27 26 -14 67 -22 134 -27 147 -10 332 -55 332 -80 0 -23 -360 -124 -482 -135
-59 -6 -99 -15 -121 -29 -20 -12 -88 -30 -177 -46 -80 -14 -244 -46 -365 -70
-608 -123 -1950 -325 -2053 -310 -101 15 -295 84 -324 115 -10 11 -30 20 -44
20 -14 0 -78 22 -142 49 -65 27 -132 52 -149 56 -18 4 -33 10 -33 15 0 16 -31
40 -53 40 -11 0 -78 27 -148 60 -71 33 -161 71 -201 84 -42 15 -79 34 -87 45
-8 13 -24 21 -43 21 -18 0 -37 9 -51 24 -13 13 -40 27 -60 31 -21 4 -43 16
-51 26 -7 11 -33 23 -57 27 -27 5 -57 21 -79 40 -19 17 -80 55 -137 84 -57 29
-103 58 -103 65 0 22 58 51 124 62 33 6 153 20 266 31 376 38 785 88 1145 140
72 10 218 28 325 40 128 14 219 30 265 45 59 20 91 24 208 24 126 1 143 -1
190 -23z m4854 -72 c38 -10 33 -32 -21 -96 -30 -35 -83 -101 -118 -147 -34
-46 -74 -93 -88 -103 -90 -66 -637 -18 -644 57 -1 6 18 13 42 16 24 3 50 14
61 26 13 14 38 22 80 27 42 5 67 13 80 27 13 15 39 23 86 29 45 6 71 14 79 26
9 12 34 20 77 25 41 5 67 13 75 24 7 10 42 23 80 31 38 8 75 21 84 28 13 13
69 33 95 35 6 0 20 -2 32 -5z m-997 -565 c505 -27 540 -48 330 -201 -41 -31
-104 -82 -140 -115 -36 -33 -91 -76 -123 -96 -32 -21 -77 -55 -100 -76 -53
-49 -156 -121 -173 -121 -7 0 -22 -13 -33 -29 -12 -16 -35 -32 -51 -36 -17 -4
-43 -17 -58 -30 -51 -43 -105 -75 -125 -75 -11 0 -36 -15 -56 -32 -20 -18 -78
-55 -129 -82 -51 -27 -103 -60 -115 -73 -14 -14 -34 -23 -55 -23 -21 0 -39 -8
-53 -24 -12 -13 -37 -27 -57 -31 -20 -4 -46 -18 -59 -31 -14 -15 -33 -24 -52
-24 -16 0 -36 -6 -43 -14 -21 -20 -65 -41 -143 -66 -38 -12 -106 -40 -150 -61
-88 -42 -212 -69 -321 -69 -52 0 -68 4 -86 22 -18 18 -39 23 -126 30 -61 4
-114 14 -127 22 -32 21 -81 32 -270 61 -118 18 -181 33 -205 47 -24 14 -62 23
-120 28 -54 5 -99 15 -125 28 -22 12 -71 24 -110 28 -40 4 -83 15 -102 25 -17
11 -75 29 -130 40 -54 11 -136 31 -183 44 -47 13 -120 31 -163 40 -49 10 -87
25 -99 37 -15 15 -40 23 -83 27 -34 4 -75 15 -91 26 -16 10 -53 22 -82 26 -30
4 -62 15 -73 25 -11 10 -47 23 -82 29 -43 8 -63 16 -65 27 -8 42 60 59 553
138 810 130 1443 256 2110 421 198 48 378 91 400 94 57 9 108 25 125 41 8 7
33 15 55 17 57 7 567 -2 785 -14z"/>
</g>
</svg>
